<svg xmlns="http://www.w3.org/2000/svg" width="512" height="512"><defs><radialGradient id="b" cx="50%" cy="50%" r="50%"><stop offset="0%" stop-color="#b8924a" stop-opacity=".15"/><stop offset="100%" stop-color="#b8924a" stop-opacity="0"/></radialGradient><linearGradient id="c" x1="0%" x2="100%" y1="0%" y2="100%"><stop offset="0%" stop-color="#d4a85c"/><stop offset="50%" stop-color="#b8924a"/><stop offset="100%" stop-color="#7a5f2e"/></linearGradient><clipPath id="a"><rect width="512" height="512" rx="110"/></clipPath></defs><g clip-path="url(#a)"><path fill="#0b0b0b" d="M0 0h512v512H0z"/><path fill="url(#b)" d="M0 0h512v512H0z"/><rect width="506" height="506" x="3" y="3" fill="none" stroke="url(#c)" stroke-width="2" opacity=".5" rx="108"/><path stroke="#c9a55a" stroke-width="3.5" d="M38 38h52M38 38v52M474 38h-52M474 38v52M38 474h52M38 474v-52M474 474h-52M474 474v-52" opacity=".7"/><path stroke="#b8924a" stroke-width="1.5" d="M80 148h352M80 364h352" opacity=".25"/><path fill="#b8924a" d="m256 138 8 10-8 10-8-10z" opacity=".6"/><text x="256" y="272" fill="url(#c)" dominant-baseline="central" font-family="'Georgia', 'Times New Roman', serif" font-size="200" font-weight="300" letter-spacing="4" opacity=".95" text-anchor="middle">CL</text><path fill="#b8924a" d="m256 354 8 10-8 10-8-10z" opacity=".6"/></g></svg>